<svg id="Layer_1" data-name="Layer 1" xmlns="http://www.w3.org/2000/svg" viewBox="0 0 1000 900"><defs><style>.cls-1{fill:#ea9194;}.cls-2{fill:#d35b8a;}.cls-3{fill:#66228f;}.cls-4{fill:#f9f6ee;}.cls-5{fill:#16073a;}.cls-6{fill:#1d0c51;}.cls-7{fill:#4591cb;}.cls-8{fill:#38353b;}.cls-9{fill:#ffd687;}.cls-10{fill:#fac466;}.cls-11{fill:#fed07b;}.cls-12,.cls-13{fill:#67626e;stroke:#67626e;stroke-miterlimit:10;}.cls-12{stroke-width:2.42px;}.cls-13{stroke-width:2.67px;}</style></defs><rect class="cls-1" y="-3" width="1000" height="903"/><path class="cls-2" d="M77,547.46c5.19-37,26.53-70.82,59.71-92.77,18.67-12.36,40.33-20.93,61.84-16.7,57.36,11.26,21.88,49.37,92.42,37.24s56.6-30.46,141.11-25.62,194.82,30.82,259.54,39.92,155.21-31.22,202.73,16.22S944,629.42,944,629.42H65.53Z"/><path class="cls-3" d="M980.72,527.52l-1.4-.11A1.51,1.51,0,0,0,980.72,527.52Z"/><path class="cls-4" d="M57.05,190H283.39s-4.22-62.47-52.87-46-61.07,15.06-68-2.77-50.71-38.13-60.43-17.13S57.05,190,57.05,190Z"/><path class="cls-4" d="M410.81,216H548.28s2.76-41.42-23-35-14.52,16.13-36.56,8.06S476.76,158.74,458,165.44c-15.06,5.37-22.76,9.43-29.93,20.58Z"/><path class="cls-4" d="M229.05,333H455.39s-4.22-62.47-52.87-46-61.07,15.06-68-2.77-50.71-38.13-60.43-17.13S229.05,333,229.05,333Z"/><path class="cls-4" d="M676.05,204H902.39s-4.22-62.47-52.87-46-61.07,15.06-68-2.77-50.71-38.13-60.43-17.13S676.05,204,676.05,204Z"/><path class="cls-4" d="M626.81,368H764.28s2.76-41.42-23-35-14.52,16.13-36.56,8.06S692.76,310.74,674,317.44c-15.06,5.37-22.76,9.43-29.93,20.58Z"/><path class="cls-5" d="M150,651.75l27.32-91.57c.33-1.11,2.32-1,2.47.13l6.35,48.42c.15,1.19,2.29,1.21,2.49,0l16.6-98.4a1.32,1.32,0,0,1,2.49,0l10.12,62.27a1.33,1.33,0,0,0,2.48.06l11.33-47.82a1.34,1.34,0,0,1,2.46,0l21.63,76.29a1.34,1.34,0,0,0,2.48-.09l17.25-104a1.33,1.33,0,0,1,2.49,0L295.67,580a1.34,1.34,0,0,0,2.46.07l30.5-98.18c.34-1.09,2.3-1,2.47.12l12.07,79.9a1.35,1.35,0,0,0,2.41.26l25.23-49.31a1.35,1.35,0,0,1,2.4.23L389,593.54a1.33,1.33,0,0,0,2.49,0L406.44,501c.18-1.14,2.22-1.19,2.48-.05l22.69,98.27c.27,1.17,2.36,1.08,2.49-.1l10.6-101.23c.13-1.19,2.26-1.26,2.5-.07l12.57,63.91a1.34,1.34,0,0,0,2.43.16l17.91-43.64a1.36,1.36,0,0,1,2.41.08L508.8,605a1.34,1.34,0,0,0,2.45-.05l25.83-108.06a1.34,1.34,0,0,1,2.48,0L550.91,552a1.36,1.36,0,0,0,2.37.28l35-57.05c.56-.9,2.22-.68,2.38.32L605.25,588a1.35,1.35,0,0,0,2.41.26L629.1,547a1.38,1.38,0,0,1,2.35.06l26.36,61.36a1.36,1.36,0,0,0,2.42-.11l33.64-122.74a1.34,1.34,0,0,1,2.46,0l12.47,51.9a1.36,1.36,0,0,0,2.36.26l32.29-52.53a1.37,1.37,0,0,1,2.36.26l10.39,42.91a1.34,1.34,0,0,0,2.46,0L779.2,452.8a1.36,1.36,0,0,1,2.41-.13l22,199.32a1.16,1.16,0,0,1-1.26,1H151.21C150.39,653,149.79,652.39,150,651.75Z"/><path class="cls-6" d="M260.28,667.43l26.3-80.26a1.26,1.26,0,0,1,2.41.18l5.91,41.33a1.25,1.25,0,0,0,2.44,0l15.53-84.45a1.26,1.26,0,0,1,2.44,0l9.44,53.31a1.26,1.26,0,0,0,2.42.08l10.58-41a1.27,1.27,0,0,1,2.39-.05l20.29,65.62a1.26,1.26,0,0,0,2.41-.12L379,532.7a1.26,1.26,0,0,1,2.43-.05L398.06,604a1.26,1.26,0,0,0,2.38.1l28.63-84.55a1.26,1.26,0,0,1,2.4.17l11.32,68.65a1.27,1.27,0,0,0,2.32.34l23.7-42.5a1.27,1.27,0,0,1,2.31.29l15.27,71.2a1.27,1.27,0,0,0,2.38.15l16.86-44.72a1.28,1.28,0,0,1,2.34,0l17.9,49a1.26,1.26,0,0,0,2.4-.24l10.1-88.4a1.26,1.26,0,0,1,2.44-.1l11.75,54.79a1.27,1.27,0,0,0,2.36.21l16.8-37.57a1.27,1.27,0,0,1,2.32.1l24.68,74.64a1.27,1.27,0,0,0,2.38-.07l24.24-93a1.26,1.26,0,0,1,2.41,0l10.62,47.28a1.28,1.28,0,0,0,2.27.36l32.89-49.25a1.27,1.27,0,0,1,2.28.41l13.73,79.57a1.27,1.27,0,0,0,2.32.34L712,575.69a1.3,1.3,0,0,1,2.24.08L739,628.68a1.27,1.27,0,0,0,2.33-.15L773,522.75a1.27,1.27,0,0,1,2.39,0L787,567.36a1.28,1.28,0,0,0,2.26.33l30.39-45.36a1.28,1.28,0,0,1,2.26.33l9.71,36.81a1.27,1.27,0,0,0,2.4,0l19.26-65.08a1.28,1.28,0,0,1,2.33-.16l23.73,173.61a1.19,1.19,0,0,1-1.23,1.13l-616.67-.11A1.16,1.16,0,0,1,260.28,667.43Z"/><path class="cls-2" d="M391,791.06c-.93-21.66,9.39-42.19,26.63-55.36C435.56,722,466.72,707.89,518,710c99.92,4.11,114,50.92,114,74.26,0,66.81-95.68,57.27-118,57.27C402,841.53,392.21,820.7,391,791.06Z"/><rect class="cls-7" x="479.21" y="720.07" width="21.97" height="93.62"/><path class="cls-8" d="M446,591.14v32.18c-3.78,4.32-44.55,52-34.72,88.68a4.14,4.14,0,0,0,3,2.7c5.74,2,18.63-.24,31.78-2.86l10-2c4.48-.9,8.78-1.74,12.61-2.34V695.06c6.66-1,12.46-1.88,16.7-1.88,8.72,0,17.81,2.43,21,8.42h8.58c3.18-6,12.27-8.42,21-8.42,4.24,0,10,.85,16.7,1.88s14.52,2.3,22.37,3a1.48,1.48,0,0,0,0-.21V591.14ZM434.14,698.7c-18.37,0,8.77-42.52,11.86-47.27v46.45a1.69,1.69,0,0,0,0,.23C442.06,698.48,438.07,698.7,434.14,698.7Z"/><path class="cls-9" d="M565.1,709.79a11.61,11.61,0,0,1-2.22.21H458.12a11.72,11.72,0,0,1-2.07-.18c4.48-.9,8.78-1.74,12.61-2.34V695.06c6.66-1,12.46-1.88,16.7-1.88,8.72,0,17.81,2.43,21,8.42h8.58c3.18-6,12.27-8.42,21-8.42,4.24,0,10,.85,16.7,1.88v12.42C556.41,708.08,560.66,708.9,565.1,709.79Z"/><path class="cls-10" d="M492.38,461.46v41.45a22.08,22.08,0,0,1-2.93.2c-8,0-12.15-3.49-12.15-6.93,0-.78-.47-1.42-1.05-1.42s-1,.64-1,1.42c0,2.25.82,5.39,4.75,7.6a19.83,19.83,0,0,0,9.49,2.17,24,24,0,0,0,2.93-.18v22.45c-9.55-1.4-17.19-3.93-21.31-7.25a2.09,2.09,0,0,0-2.21-.12.86.86,0,0,0-.18,1.51c3.91,3.16,10.5,5.68,19.05,7.28,1.51.28,3.06.54,4.65.76v60.74H446V468.55A247.82,247.82,0,0,1,492.38,461.46Z"/><path class="cls-11" d="M510.12,460.91c-6.24,0-12.17.2-17.74.55v41.45c5.12-.66,9.65-3.08,9.65-6.73,0-.78.47-1.42,1.05-1.42s1,.64,1,1.42c0,5.79-5.65,8.86-11.74,9.59v22.45a128.7,128.7,0,0,0,21.19,1.19c16.77-.38,30.42-3.59,35.61-8.39a2.09,2.09,0,0,1,2.19-.22c.69.36.84,1,.32,1.51-3,2.76-8.33,5.07-15.45,6.7a116.28,116.28,0,0,1-22.57,2.55l-3.28,0a130.73,130.73,0,0,1-18-1.19v60.74H575V468.59A267,267,0,0,0,510.12,460.91Zm20.31,45a19.79,19.79,0,0,1-9.48-2.17c-3.94-2.21-4.76-5.35-4.76-7.6,0-.78.47-1.42,1-1.42s1,.64,1,1.42c0,3.44,4.17,6.93,12.15,6.93,6.19,0,12.58-2.59,12.58-6.93,0-.78.47-1.42,1-1.42s1.05.64,1.05,1.42C545.11,502.89,537.5,506,530.43,506Z"/><path class="cls-9" d="M504.12,496.18c0,5.79-5.65,8.86-11.74,9.59a24,24,0,0,1-2.93.18,19.83,19.83,0,0,1-9.49-2.17c-3.93-2.21-4.75-5.35-4.75-7.6,0-.78.46-1.42,1-1.42s1.05.64,1.05,1.42c0,3.44,4.17,6.93,12.15,6.93a22.08,22.08,0,0,0,2.93-.2c5.12-.66,9.65-3.08,9.65-6.73,0-.78.47-1.42,1.05-1.42S504.12,495.4,504.12,496.18Z"/><path class="cls-9" d="M516.19,496.18c0-.78.47-1.42,1-1.42s1,.64,1,1.42c0,3.44,4.17,6.93,12.15,6.93,6.19,0,12.58-2.59,12.58-6.93,0-.78.47-1.42,1-1.42s1.05.64,1.05,1.42c0,6.71-7.61,9.77-14.68,9.77a19.79,19.79,0,0,1-9.48-2.17C517,501.57,516.19,498.43,516.19,496.18Z"/><path class="cls-9" d="M551.69,522.31c-3,2.76-8.33,5.07-15.45,6.7a116.28,116.28,0,0,1-22.57,2.55l-3.28,0a130.73,130.73,0,0,1-18-1.19c-1.59-.22-3.14-.48-4.65-.76-8.55-1.6-15.14-4.12-19.05-7.28a.86.86,0,0,1,.18-1.51,2.09,2.09,0,0,1,2.21.12c4.12,3.32,11.76,5.85,21.31,7.25a128.7,128.7,0,0,0,21.19,1.19c16.77-.38,30.42-3.59,35.61-8.39a2.09,2.09,0,0,1,2.19-.22C552.06,521.16,552.21,521.83,551.69,522.31Z"/><path class="cls-12" d="M504.12,496.18c0,5.79-5.65,8.86-11.74,9.59a24,24,0,0,1-2.93.18,19.83,19.83,0,0,1-9.49-2.17c-3.93-2.21-4.75-5.35-4.75-7.6,0-.78.46-1.42,1-1.42s1.05.64,1.05,1.42c0,3.44,4.17,6.93,12.15,6.93a22.08,22.08,0,0,0,2.93-.2c5.12-.66,9.65-3.08,9.65-6.73,0-.78.47-1.42,1.05-1.42S504.12,495.4,504.12,496.18Z"/><path class="cls-12" d="M545.11,496.18c0,6.71-7.61,9.77-14.68,9.77a19.79,19.79,0,0,1-9.48-2.17c-3.94-2.21-4.76-5.35-4.76-7.6,0-.78.47-1.42,1-1.42s1,.64,1,1.42c0,3.44,4.17,6.93,12.15,6.93,6.19,0,12.58-2.59,12.58-6.93,0-.78.47-1.42,1-1.42S545.11,495.4,545.11,496.18Z"/><path class="cls-13" d="M551.69,522.31c-3,2.76-8.33,5.07-15.45,6.7a116.28,116.28,0,0,1-22.57,2.55l-3.28,0a130.73,130.73,0,0,1-18-1.19c-1.59-.22-3.14-.48-4.65-.76-8.55-1.6-15.14-4.12-19.05-7.28a.86.86,0,0,1,.18-1.51,2.09,2.09,0,0,1,2.21.12c4.12,3.32,11.76,5.85,21.31,7.25a128.7,128.7,0,0,0,21.19,1.19c16.77-.38,30.42-3.59,35.61-8.39a2.09,2.09,0,0,1,2.19-.22C552.06,521.16,552.21,521.83,551.69,522.31Z"/><path class="cls-7" d="M574.71,711.74a9.07,9.07,0,0,1-9,8.26H455.09a9.08,9.08,0,0,1-9-8.16l10-2c4.48-.9,8.78-1.74,12.61-2.34V701.6h84v5.88c3.79.6,8,1.42,12.48,2.31Z"/><path class="cls-8" d="M610,712a4.14,4.14,0,0,1-3,2.7c-5.82,2-19-.3-32.3-3l-9.61-2c-4.44-.89-8.69-1.71-12.48-2.31V695.06c6.81,1.06,14.52,2.3,22.37,3,4,.37,8.13.61,12.15.61C606.6,698.7,575,651,575,651V623S620.31,673.6,610,712Z"/><path class="cls-9" d="M552.62,695.06v12.42a65.52,65.52,0,0,0-9.66-1c-8.11,0-15.26,2.28-20.45,3.5-3.52.83-6.15,1.18-7.56,0-.78-.64-1.2-1.75-1.2-3.5a10.23,10.23,0,0,1,1.18-4.9c3.18-6,12.27-8.42,21-8.42C540.16,693.18,546,694,552.62,695.06Z"/><path class="cls-9" d="M507.53,706.5c0,1.75-.42,2.86-1.2,3.5-1.41,1.18-4,.83-7.56,0-5.19-1.22-12.34-3.5-20.45-3.5a65.52,65.52,0,0,0-9.66,1V695.06c6.66-1,12.46-1.88,16.7-1.88,8.72,0,17.81,2.43,21,8.42A10.23,10.23,0,0,1,507.53,706.5Z"/><path class="cls-6" d="M501.18,813.69v36.66H464.34a8,8,0,1,1,0-15.94h14.87V813.69Z"/><path class="cls-6" d="M565.18,842.38a8,8,0,0,1-8,8H520.36V813.69h22v20.72h14.87A8,8,0,0,1,565.18,842.38Z"/><rect class="cls-7" x="520.36" y="720.07" width="21.98" height="93.62"/><path class="cls-8" d="M575,462.12v6.47c-11-2.83-34.51,1.41-65,1.41-31.12,0-55.37-3.7-64-1.45v-6.43A12.11,12.11,0,0,1,458.12,450H562.88A12.11,12.11,0,0,1,575,462.12Z"/></svg>